<svg width="60" height="60" viewBox="0 0 60 60" fill="none" xmlns="http://www.w3.org/2000/svg">
<circle cx="30" cy="30" r="30" fill="#7C509A"/>
<path d="M39.3809 15.8189C33.6636 14.727 27.7264 14.727 22.0092 15.8189C19.4804 16.3648 16.2919 19.4219 15.7421 21.8239C14.7526 26.5188 14.7526 31.3228 15.7421 36.0177C16.4018 38.4197 19.5903 41.4768 22.0092 42.0227C22.1191 42.0227 22.2291 42.1319 22.2291 42.2411V49.1196C22.2291 49.4472 22.6688 49.6655 22.8887 49.338L26.1872 45.9533C26.1872 45.9533 28.8259 43.2237 29.2657 42.787C29.2657 42.787 29.3757 42.6778 29.4856 42.6778C32.784 42.787 36.1924 42.4595 39.4908 41.9135C42.0196 41.3676 45.2081 38.3105 45.7579 35.9085C46.7474 31.2136 46.7474 26.4096 45.7579 21.7147C45.0982 19.4219 41.9097 16.3648 39.3809 15.8189ZM39.4908 36.3452C38.9411 37.4371 38.2814 38.3105 37.1819 38.8564C36.8521 38.9656 36.5223 39.0748 36.1924 39.184C35.7526 39.0748 35.4228 38.9656 35.0929 38.8564C31.5746 37.4371 28.2762 35.4718 25.6374 32.633C24.2081 30.9953 22.9987 29.1392 22.0092 27.1739C21.5694 26.1912 21.1296 25.3178 20.7997 24.3351C20.4699 23.4617 21.0196 22.5882 21.5694 21.9331C22.1191 21.278 22.7788 20.8413 23.5484 20.5137C24.0982 20.1862 24.6479 20.4045 25.0877 20.8413C25.9673 21.9331 26.8469 23.0249 27.5065 24.2259C27.9463 24.9902 27.8364 25.8637 27.0668 26.4096C26.8469 26.5188 26.7369 26.628 26.517 26.8463C26.4071 26.9555 26.1872 27.0647 26.0772 27.2831C25.8573 27.6106 25.8573 27.9382 25.9673 28.2657C26.8469 30.7769 28.4961 32.7422 31.0249 33.834C31.4647 34.0524 31.7945 34.1616 32.3442 34.1616C33.1139 34.0524 33.4437 33.1789 33.9935 32.7422C34.5432 32.3055 35.2029 32.3055 35.8626 32.633C36.4123 32.9606 36.962 33.3973 37.6217 33.834C38.1715 34.2708 38.7212 34.5983 39.2709 35.035C39.6008 35.2534 39.7107 35.7993 39.4908 36.3452ZM34.873 28.1565C34.6531 28.1565 34.7631 28.1565 34.873 28.1565C34.4332 28.1565 34.3233 27.9382 34.2134 27.6106C34.2134 27.3922 34.2134 27.0647 34.1034 26.8463C33.9935 26.4096 33.7736 25.9729 33.3338 25.6453C33.1139 25.5361 32.894 25.427 32.6741 25.3178C32.3442 25.2086 32.1243 25.2086 31.7945 25.2086C31.4647 25.0994 31.3547 24.881 31.3547 24.5535C31.3547 24.3351 31.6846 24.1168 31.9045 24.1168C33.6636 24.2259 34.983 25.2086 35.2029 27.2831C35.2029 27.3922 35.2029 27.6106 35.2029 27.7198C35.2029 27.9382 35.0929 28.1565 34.873 28.1565ZM33.7736 23.3525C33.2238 23.1341 32.6741 22.9157 32.0144 22.8066C31.7945 22.8066 31.4647 22.6974 31.2448 22.6974C30.9149 22.6974 30.695 22.479 30.805 22.1515C30.805 21.8239 31.0249 21.6056 31.3547 21.7147C32.4542 21.8239 33.4437 22.0423 34.4333 22.479C36.4123 23.4617 37.5118 25.0994 37.8416 27.2831C37.8416 27.3922 37.8416 27.5014 37.8416 27.6106C37.8416 27.829 37.8416 28.0473 37.8416 28.3749C37.8416 28.4841 37.8416 28.5933 37.8416 28.7024C37.7317 29.1392 36.962 29.2483 36.8521 28.7024C36.8521 28.5933 36.7421 28.3749 36.7421 28.2657C36.7421 27.2831 36.5223 26.3004 36.0825 25.427C35.4228 24.4443 34.6531 23.7892 33.7736 23.3525ZM39.7107 29.9034C39.3809 29.9034 39.161 29.5759 39.161 29.2483C39.161 28.5933 39.0511 27.9382 38.9411 27.2831C38.5013 23.7892 35.6427 20.9505 32.2343 20.4045C31.6846 20.2954 31.1348 20.2954 30.695 20.1862C30.3652 20.1862 29.9254 20.1862 29.8154 19.7494C29.7055 19.4219 30.0353 19.0944 30.3652 19.0944C30.4751 19.0944 30.5851 19.0944 30.5851 19.0944C35.0929 19.2035 30.805 19.0944 30.5851 19.0944C35.2029 19.2035 39.051 22.2607 39.8207 26.8463C39.9306 27.6106 40.0406 28.3749 40.0406 29.2483C40.2605 29.5759 40.0406 29.9034 39.7107 29.9034Z" fill="white"/>
</svg>
