<?xml version="1.0" encoding="UTF-8" standalone="no"?>
<!-- Created with Inkscape (http://www.inkscape.org/) -->

<svg
   xmlns:dc="http://purl.org/dc/elements/1.1/"
   xmlns:cc="http://creativecommons.org/ns#"
   xmlns:rdf="http://www.w3.org/1999/02/22-rdf-syntax-ns#"
   xmlns:svg="http://www.w3.org/2000/svg"
   xmlns="http://www.w3.org/2000/svg"
   xmlns:sodipodi="http://sodipodi.sourceforge.net/DTD/sodipodi-0.dtd"
   xmlns:inkscape="http://www.inkscape.org/namespaces/inkscape"
   width="358.72879mm"
   height="67.531998mm"
   viewBox="0 0 358.72879 67.531998"
   version="1.1"
   id="svg940"
   inkscape:version="0.92.4 (5da689c313, 2019-01-14)"
   sodipodi:docname="logo_wht.svg">
  <defs
     id="defs934">
    <style
       id="style1485"
       type="text/css">
   <![CDATA[
    .fil1 {fill:black;fill-rule:nonzero}
    .fil0 {fill:#8A48B8;fill-rule:nonzero}
    .fil2 {fill:#8C8C8C;fill-rule:nonzero}
   ]]>
  </style>
  </defs>
  <sodipodi:namedview
     id="base"
     pagecolor="#ffffff"
     bordercolor="#666666"
     borderopacity="1.0"
     inkscape:pageopacity="0.0"
     inkscape:pageshadow="2"
     inkscape:zoom="0.35"
     inkscape:cx="1395.0556"
     inkscape:cy="-49.523344"
     inkscape:document-units="mm"
     inkscape:current-layer="layer1"
     showgrid="false"
     fit-margin-top="0"
     fit-margin-left="0"
     fit-margin-right="0"
     fit-margin-bottom="0"
     inkscape:window-width="1920"
     inkscape:window-height="1017"
     inkscape:window-x="-8"
     inkscape:window-y="-8"
     inkscape:window-maximized="1" />
  <metadata
     id="metadata937">
    <rdf:RDF>
      <cc:Work
         rdf:about="">
        <dc:format>image/svg+xml</dc:format>
        <dc:type
           rdf:resource="http://purl.org/dc/dcmitype/StillImage" />
        <dc:title></dc:title>
      </cc:Work>
    </rdf:RDF>
  </metadata>
  <g
     inkscape:label="Layer 1"
     inkscape:groupmode="layer"
     id="layer1"
     transform="translate(400.1025,-68.198282)">
    <g
       style="clip-rule:evenodd;fill:#ffffff;fill-opacity:1;fill-rule:evenodd;image-rendering:optimizeQuality;shape-rendering:geometricPrecision;text-rendering:geometricPrecision"
       id="g1511"
       transform="matrix(0.01,0,0,0.01,-400.0584,68.182282)">
      <g
         id="Слой_x0020_1"
         style="fill:#ffffff;fill-opacity:1">
  <metadata
   id="CorelCorpID_0Corel-Layer" />

  <g
   id="_2222411585296"
   style="fill:#ffffff;fill-opacity:1">
   <path
   id="path1490"
   d="m 7574.98,3654.7 c -424.82,415.11 -952.44,622.66 -1582.86,622.66 -630.43,0 -1156.11,-206.58 -1577.04,-619.6 -420.79,-413.16 -631.25,-919.28 -631.25,-1518.35 0,-595.05 212.4,-1100.19 637.22,-1515.16 C 4845.86,209.15 5373.48,1.6 6003.91,1.6 c 630.28,0 1155.96,206.58 1576.89,619.6 420.93,413.16 631.4,919.14 631.4,1518.21 0,595.18 -212.41,1100.33 -637.22,1515.29 z M 1228.97,4195.09 V 1082.37 H -4.41 V 83.87 h 3606.07 v 998.5 H 2368.28 v 3112.72 z m 7576.47,0 V 83.87 h 1761.97 c 524.57,0 940.64,128.19 1247.95,384.72 307.44,256.39 461.02,613.78 461.02,1071.75 0,469.9 -162.46,834.09 -487.38,1092.42 -325.07,258.47 -751.82,387.63 -1280.41,387.63 h -563.83 v 1174.7 z M 9944.76,2127.76 h 540.38 c 203.53,0 363.08,-48.98 478.64,-146.93 115.57,-97.81 173.29,-231 173.29,-399.29 0,-176.19 -57.72,-310.35 -173.29,-402.33 -115.56,-91.99 -277.05,-138.05 -484.47,-138.05 H 9944.76 Z M 6003.91,3249.45 c 309.24,0 560.78,-107.66 754.59,-322.98 193.82,-215.32 290.8,-477.68 290.8,-787.06 0,-305.36 -99.89,-566.74 -299.54,-784.01 -199.78,-217.26 -452.28,-325.89 -757.64,-325.89 -305.37,0 -555.09,107.66 -748.91,322.98 -193.82,215.32 -290.66,477.67 -290.66,786.92 0,305.5 98.92,566.88 296.62,784.15 197.71,217.26 449.24,325.89 754.74,325.89 z"
   class="fil0"
   inkscape:connector-curvature="0"
   style="fill:#ffffff;fill-opacity:1;fill-rule:nonzero" />

   <path
   id="path1492"
   d="M 22903.42,4195.1 V 83.88 h 1943.99 c 599.08,0 1045.39,146.79 1339.08,440.48 242.8,242.81 364.05,567.71 364.05,974.94 0,602.91 -281.89,1023.88 -845.72,1262.75 l 980.86,1433.05 h -1315.52 l -828.09,-1245.18 h -499.35 V 4195.1 Z m 9564.45,0 h 780.4 v -960.09 h -402.08 c 237.55,-609.47 471.33,-1217.95 714.08,-1829.67 238.92,609.36 469.24,1220.78 705.64,1829.67 h -393.58 v 960.09 h 774.41 444.11 777.62 L 34118.28,54.45 H 33019.9 L 31269.71,4195.1 h 462.31 z m -13364.46,0 h 780.4 v -960.09 h -402.08 c 237.5,-609.47 471.28,-1217.95 714.08,-1829.67 238.92,609.36 469.24,1220.78 705.64,1829.67 h -393.63 v 960.09 h 774.47 444.1 777.62 L 20753.82,54.45 H 19655.44 L 17905.25,4195.1 h 462.25 z m -5967.12,0 V 83.88 h 1203.94 l 980.91,1591.59 980.71,-1591.59 h 1203.99 V 4195.1 H 16372.36 V 1834.07 l -1051.22,1609.22 h -23.6 L 14252.14,1845.82 V 4195.1 Z m 13989.88,0 V 83.88 h 1139.3 V 1751.75 L 29681.05,83.88 h 1350.73 l -1556.34,1767.77 1609.23,2343.45 h -1368.52 l -1033.59,-1527.12 -417.09,464.1 V 4195.1 Z M 24042.72,2057.3 h 751.86 c 191.86,0 341.54,-44.12 449.19,-132.26 107.66,-88.08 161.64,-210.43 161.64,-367.09 0,-160.54 -53.98,-281.88 -161.64,-364.04 -107.65,-82.27 -259.27,-123.35 -455.02,-123.35 h -746.03 z"
   class="fil1"
   inkscape:connector-curvature="0"
   style="fill:#ffffff;fill-opacity:1;fill-rule:nonzero" />

   <path
   id="path1494"
   d="M -4.41,6735.18 499.21,5582.41 H 685.59 L 1189.2,6735.18 H 976.66 L 860.53,6458.83 H 319.32 L 201.59,6735.18 Z M 392.91,6280.59 H 786.99 L 589.13,5822.76 Z m 1115.18,454.59 V 5590.59 h 770.13 v 181.49 h -570.67 v 963.1 z m 1093.91,0 V 5590.59 h 848.62 v 179.84 h -647.51 v 297.62 h 573.92 v 179.84 h -573.92 v 307.4 h 655.7 v 179.89 z m 1218.18,0 V 5590.59 h 201.11 v 475.81 h 546.11 v -475.81 h 201.16 V 6735.18 H 4567.4 v -482.35 h -546.11 v 482.35 z m 1646.56,0 v -958.21 h -363.02 v -186.38 h 928.75 v 186.38 H 5669.5 v 958.21 z m 1432.32,19.62 c -165.68,0 -304.11,-56.96 -415.3,-170.87 -111.19,-113.92 -166.81,-254.26 -166.81,-421.07 0,-165.67 55.62,-305.75 166.81,-420.19 111.19,-114.48 252.35,-171.7 423.49,-171.7 99.19,0 183.39,15.25 252.61,45.79 69.21,30.54 134.36,74.67 195.44,132.45 L 7226.08,5898 c -102.43,-94.87 -209.29,-142.25 -320.48,-142.25 -108.97,0 -199.2,39.25 -270.58,117.73 -71.43,78.49 -107.12,174.95 -107.12,289.38 0,113.4 36,209.61 107.94,288.61 71.95,79.05 161.87,118.55 269.76,118.55 65.4,0 123.19,-12.26 173.35,-36.77 50.11,-24.51 101.92,-61.85 155.32,-112.01 l 129.16,130.81 c -64.32,67.57 -132.4,118.29 -204.35,152.08 -71.94,33.78 -158.62,50.67 -260.02,50.67 z m 1079.23,-19.62 v -958.21 h -363.02 v -186.38 h 928.75 v 186.38 h -362.97 v 958.21 z m 900.94,0 V 5590.59 h 513.41 c 131.89,0 231.64,33.79 299.21,101.36 51.24,51.24 76.89,115.56 76.89,192.97 0,113.35 -54.54,198.37 -163.51,255.08 151.51,51.24 227.27,144.97 227.27,281.24 0,100.27 -38.16,177.67 -114.49,232.16 -76.27,54.54 -179.32,81.78 -309,81.78 z m 197.81,-662.24 h 274.71 c 66.48,0 119.12,-13.34 157.79,-40.06 38.73,-26.68 58.04,-66.23 58.04,-118.56 0,-45.78 -17.4,-81.47 -52.32,-107.07 -34.87,-25.64 -84.46,-38.41 -148.79,-38.41 h -289.43 z m 0,484 h 333.57 c 69.78,0 124.01,-13.6 162.69,-40.89 38.73,-27.24 58.09,-67 58.09,-119.33 0,-102.48 -78.49,-153.72 -235.46,-153.72 h -318.89 z m 2081.53,24.51 c -113.35,115.57 -256.67,173.35 -430.02,173.35 -173.3,0 -316.11,-57.21 -428.38,-171.7 -112.32,-114.43 -168.46,-254.51 -168.46,-420.24 0,-163.51 56.7,-303.02 170.06,-418.59 113.4,-115.51 256.72,-173.3 430.07,-173.3 173.3,0 316.11,57.22 428.38,171.7 112.27,114.44 168.4,254.52 168.4,420.19 0,163.51 -56.65,303.08 -170.05,418.59 z m -705.55,-129.98 c 73.59,79.05 166.5,118.55 278.82,118.55 112.27,0 204.66,-39.24 277.12,-117.73 72.52,-78.48 108.77,-174.94 108.77,-289.43 0,-113.35 -36.82,-209.55 -110.41,-288.55 -73.55,-79.06 -166.5,-118.56 -278.77,-118.56 -112.27,0 -204.66,39.25 -277.18,117.73 -72.46,78.49 -108.71,174.95 -108.71,289.38 0,113.4 36.77,209.61 110.36,288.61 z m 1855.08,283.71 V 5590.59 h 197.81 v 835.54 l 578.86,-835.54 h 188.03 v 1144.59 h -197.86 v -833.94 l -577.16,833.94 z m 1383.29,0 V 5590.59 h 201.11 v 475.81 h 546.1 v -475.81 h 201.16 v 1144.59 h -201.16 v -482.35 h -546.1 v 482.35 z m 1646.56,0 v -958.21 h -363.02 v -186.38 h 928.75 v 186.38 h -362.98 v 958.21 z m 900.94,0 V 5590.59 h 848.62 v 179.84 H 16440 v 297.62 h 573.91 v 179.84 H 16440 v 307.4 h 655.69 v 179.89 z m 1218.18,0 V 5590.59 h 451.29 c 132.98,0 238.71,34.87 317.19,104.65 78.49,69.78 117.73,163.51 117.73,281.24 0,123.19 -43.31,219.08 -129.98,287.79 -86.68,68.64 -195.96,103 -327.85,103 h -227.27 v 367.91 z m 201.11,-549.4 h 233.81 c 75.24,0 135.18,-19.06 179.89,-57.22 44.65,-38.16 67,-88.32 67,-150.43 0,-65.4 -22.04,-115.82 -66.23,-151.25 -44.14,-35.44 -104.34,-53.15 -180.66,-53.15 h -233.81 z m 1013.77,549.4 V 5590.59 h 201.11 v 475.81 h 546.11 v -475.81 h 201.16 v 1144.59 h -201.16 v -482.35 h -546.11 v 482.35 z m 1365.32,0 V 5590.59 h 848.62 v 179.84 h -647.51 v 297.62 h 573.91 v 179.84 h -573.91 v 307.4 h 655.7 v 179.89 z m 1499.42,0 v -958.21 h -363.02 v -186.38 h 928.75 v 186.38 h -362.97 v 958.21 z m 1514.1,0 V 5590.59 h 214.19 l 348.29,541.22 348.25,-541.22 h 214.24 v 1144.59 h -201.16 v -820.86 l -361.33,539.62 h -6.54 l -358.13,-536.32 v 817.56 z m 1443.8,0 503.62,-1152.77 h 186.38 l 503.62,1152.77 h -212.54 l -116.13,-276.35 h -541.22 l -117.73,276.35 z m 397.33,-454.59 h 394.07 l -197.86,-457.83 z m 1115.18,454.59 V 5590.59 h 451.29 c 132.97,0 238.7,34.87 317.19,104.65 78.49,69.78 117.73,163.51 117.73,281.24 0,123.19 -43.31,219.08 -129.99,287.79 -86.67,68.64 -195.95,103 -327.85,103 h -227.27 v 367.91 z m 201.1,-549.4 h 233.81 c 75.25,0 135.19,-19.06 179.89,-57.22 44.65,-38.16 67.01,-88.32 67.01,-150.43 0,-65.4 -22.05,-115.82 -66.23,-151.25 -44.14,-35.44 -104.34,-53.15 -180.67,-53.15 h -233.81 z m 1013.78,549.4 V 5590.59 h 201.11 v 575.57 l 544.51,-575.57 h 246.89 l -475.81,492.19 497.08,652.4 h -243.65 l -390.78,-515.05 -178.24,183.13 v 331.92 z m 1308.1,0 V 5590.59 h 848.62 v 179.84 h -647.51 v 297.62 h 573.91 v 179.84 h -573.91 v 307.4 h 655.7 v 179.89 z m 1499.42,0 v -958.21 h -363.02 v -186.38 h 928.75 v 186.38 h -362.97 v 958.21 z m 900.94,0 V 5590.59 h 197.82 v 835.54 l 578.85,-835.54 h 188.03 v 1144.59 h -197.86 v -833.94 l -577.16,833.94 z m 1383.29,0 V 5590.59 h 201.11 v 475.81 h 546.11 v -475.81 h 201.16 v 1144.59 h -201.16 v -482.35 h -546.11 v 482.35 z m 1365.32,0 V 5590.59 h 770.13 v 181.49 h -570.67 v 963.1 z m 995.8,0 503.62,-1152.77 h 186.38 l 503.62,1152.77 h -212.54 l -116.14,-276.35 h -541.21 l -117.73,276.35 z m 397.33,-454.59 h 394.07 l -197.86,-457.83 z"
   class="fil2"
   inkscape:connector-curvature="0"
   style="fill:#ffffff;fill-opacity:1;fill-rule:nonzero" />

  </g>

 </g>
    </g>
  </g>
</svg>
