<svg width="23" height="26" viewBox="0 0 23 26" fill="none" xmlns="http://www.w3.org/2000/svg">
<path d="M20.4954 13.165C19.2529 12.6611 17.6085 12.3837 15.8649 12.3837C15.0494 12.3819 14.235 12.4458 13.4295 12.5748V2.93624C13.4295 2.09167 12.6893 1.3263 11.3455 0.781293C10.103 0.277359 8.45856 0 6.71499 0C4.97141 0 3.32673 0.277359 2.08402 0.781293C0.740207 1.32642 0 2.09167 0 2.93624V18.4239C0 19.2685 0.740207 20.0339 2.08402 20.5789C3.3265 21.0828 4.97095 21.3602 6.71446 21.3602C7.53004 21.3623 8.34447 21.2982 9.14997 21.1685V23.0638C9.14997 23.9083 9.89017 24.6737 11.234 25.2187C12.4765 25.7226 14.1209 26 15.8644 26C17.6079 26 19.2525 25.7225 20.4949 25.2187C21.839 24.6736 22.5789 23.9083 22.5789 23.0638V15.32C22.5798 14.4755 21.8395 13.7101 20.4954 13.165ZM6.71469 0.710148C10.259 0.710148 12.729 1.88333 12.729 2.93624C12.729 3.98915 10.259 5.16233 6.71469 5.16233C3.1704 5.16233 0.700512 3.98915 0.700512 2.93624C0.700512 1.88333 3.17046 0.710148 6.71469 0.710148ZM0.700512 4.28042C1.04394 4.58364 1.50849 4.85769 2.08402 5.09131C3.3265 5.59524 4.97095 5.8726 6.71446 5.8726C8.45798 5.8726 10.1024 5.59512 11.345 5.09131C11.9207 4.85781 12.3853 4.58376 12.7285 4.28042V5.51747C12.7285 6.57038 10.2585 7.74362 6.71417 7.74362C3.16987 7.74362 0.700512 6.57038 0.700512 5.51747V4.28042ZM0.700512 6.86165C1.04394 7.16493 1.50849 7.43891 2.08402 7.67253C3.3265 8.17641 4.97095 8.45382 6.71446 8.45382C8.45798 8.45382 10.1024 8.17629 11.345 7.67253C11.9207 7.43897 12.3853 7.16493 12.7285 6.86165V8.09869C12.7285 9.1516 10.2585 10.3248 6.71417 10.3248C3.16987 10.3248 0.700512 9.15166 0.700512 8.09875V6.86165ZM0.700512 9.44287C1.04394 9.74615 1.50849 10.0202 2.08402 10.2538C3.3265 10.7577 4.97095 11.035 6.71446 11.035C8.45798 11.035 10.1024 10.7576 11.345 10.2538C11.9207 10.0203 12.3853 9.74621 12.7285 9.44287V10.6799C12.7285 11.7328 10.2585 12.906 6.71417 12.906C3.16987 12.906 0.700512 11.7329 0.700512 10.68V9.44287ZM9.1502 20.4487C8.3454 20.5852 7.53067 20.6526 6.71469 20.65C3.17046 20.6497 0.700512 19.4766 0.700512 18.4239V17.1869C1.04394 17.4902 1.50849 17.7642 2.08402 17.9978C3.3265 18.5017 4.97095 18.7791 6.71446 18.7791C7.53004 18.7812 8.34448 18.7171 9.14997 18.5874L9.1502 20.4487ZM9.1502 17.8675C8.3454 18.0039 7.53067 18.0713 6.71469 18.0687C3.17046 18.0688 0.700512 16.8953 0.700512 15.8424V14.6054C1.04394 14.9086 1.50849 15.1826 2.08402 15.4163C3.3265 15.9201 4.97095 16.1976 6.71446 16.1976C7.53004 16.1997 8.34448 16.1356 9.14997 16.0058L9.1502 17.8675ZM9.15113 15.2861C8.34603 15.4226 7.53098 15.4899 6.71469 15.4873C3.17046 15.4873 0.700512 14.3141 0.700512 13.2612V12.0242C1.04394 12.3274 1.50849 12.6014 2.08402 12.835C3.3265 13.339 4.97095 13.6163 6.71446 13.6163C8.45798 13.6163 10.1024 13.3389 11.345 12.835C11.9207 12.6015 12.3853 12.3275 12.7285 12.0242V12.7095C12.219 12.8201 11.7192 12.9725 11.234 13.1653C9.90844 13.7029 9.17086 14.455 9.15113 15.2861ZM21.8793 23.0638C21.8793 24.1167 19.4093 25.2899 15.865 25.2899C12.3207 25.2899 9.85083 24.1167 9.85083 23.0638V21.8267C10.1943 22.13 10.6588 22.404 11.2343 22.6376C12.4768 23.1415 14.1213 23.4189 15.8648 23.4189C17.6083 23.4189 19.2528 23.1414 20.4953 22.6376C21.071 22.404 21.5357 22.13 21.8788 21.8267L21.8793 23.0638ZM21.8793 20.4825C21.8793 21.5354 19.4093 22.7086 15.865 22.7086C12.3207 22.7086 9.85083 21.5354 9.85083 20.4825V19.2454C10.1943 19.5487 10.6588 19.8227 11.2343 20.0563C12.4768 20.5603 14.1213 20.8376 15.8648 20.8376C17.6083 20.8376 19.2529 20.5601 20.4953 20.0563C21.071 19.8228 21.5357 19.5488 21.8788 19.2454L21.8793 20.4825ZM21.8793 17.9013C21.8793 18.9542 19.4093 20.1273 15.865 20.1273C12.3207 20.1273 9.85083 18.9542 9.85083 17.9013V16.6642C10.1943 16.9675 10.6588 17.2415 11.2343 17.4751C12.4768 17.979 14.1213 18.2564 15.8648 18.2564C17.6083 18.2564 19.2529 17.9788 20.4953 17.4751C21.071 17.2415 21.5357 16.9675 21.8788 16.6642L21.8793 17.9013ZM15.865 17.5461C12.3208 17.5461 9.85083 16.3729 9.85083 15.32C9.85083 14.2671 12.3208 13.0939 15.865 13.0939C19.4092 13.0939 21.8793 14.2671 21.8793 15.32C21.8793 16.3729 19.4093 17.5461 15.865 17.5461Z" fill="#5A79E9"/>
</svg>
