<svg width="26" height="26" viewBox="0 0 26 26" fill="none" xmlns="http://www.w3.org/2000/svg">
<path d="M13 0C20.1633 0 26 5.83673 26 13C26 20.1633 20.1633 26 13 26C5.83673 26 0 20.1633 0 13C0 5.83673 5.83673 0 13 0ZM12.2925 3.27211C12.2925 2.38776 13.619 2.38776 13.619 3.27211V12.2925H21.0476C21.932 12.2925 21.932 13.619 21.0476 13.619H13C12.6463 13.619 12.2925 13.3537 12.2925 13V3.27211ZM13 1.32653C6.54422 1.32653 1.32653 6.54422 1.32653 13C1.32653 19.3673 6.54422 24.585 13 24.585C19.3673 24.585 24.585 19.3673 24.585 13C24.585 6.54422 19.3673 1.32653 13 1.32653Z" fill="#8A48B8"/>
</svg>
